<?xml version="1.0" encoding="UTF-8"?>
<svg id="Capa_1" xmlns="http://www.w3.org/2000/svg" version="1.1" viewBox="0 0 30 30">
  <!-- Generator: Adobe Illustrator 29.0.1, SVG Export Plug-In . SVG Version: 2.1.0 Build 192)  -->
  <path d="M20.1,3.3C15.5-1.3,8-1.3,3.3,3.3-1.3,8-1.3,15.5,3.3,20.1c4.1,4.1,10.5,4.5,15.1,1.3,0,.5.3.9.7,1.3l6.7,6.7c1,1,2.6,1,3.5,0,1-1,1-2.6,0-3.5l-6.7-6.7c-.4-.4-.8-.6-1.3-.7,3.2-4.6,2.8-11-1.3-15.1ZM18,18c-3.4,3.4-9,3.4-12.5,0-3.4-3.4-3.4-9,0-12.5,3.4-3.4,9-3.4,12.5,0,3.4,3.4,3.4,9,0,12.5Z"/>
</svg>