<?xml version="1.0" encoding="UTF-8" standalone="no"?>

<svg version="1.1" id="svg2364" viewBox="0 0 682.66669 682.66669" xmlns="http://www.w3.org/2000/svg" xml:space="preserve" >
  <g id="g2370" transform="matrix(1.3333333,0,0,-1.3333333,0,682.66667)">
    <g id="g2372" transform="translate(134.4077,176.3975)">
      <path d="M 0,0 169.792,-113.197 V 47.469" style="fill:none;stroke:#000000;stroke-width:30;stroke-linecap:round;stroke-linejoin:round;stroke-miterlimit:10;stroke-dasharray:none;stroke-opacity:1" id="path2374" />
    </g>
    <g id="g2376">
      <g id="g2378" clip-path="url(#clipPath2382)">
        <g id="g2384" transform="translate(134.3994,176.3975)">
          <path d="m 0,0 c -12.781,-18.268 -37.821,-22.983 -56.378,-10.612 -12.459,8.306 -26.39,17.593 -37.981,25.321 -15.641,10.428 -25.04,27.988 -25.04,46.786 v 66.323 c 0,51.133 20.308,100.168 56.466,136.319 36.15,36.157 85.185,56.466 136.317,56.466 h 64.283 c 124.228,0 224.934,-100.707 224.934,-224.934 h -99.156 c -8.523,0 -16.693,-3.382 -22.726,-9.415 -8.74,-8.74 -22.076,-22.075 -33.411,-33.41 -11.841,-11.842 -31.04,-11.842 -42.882,0 l -0.008,0.008 C 145.829,71.44 119.97,80.855 93.781,78.559 67.593,76.269 43.757,62.508 28.679,40.971 12.781,18.252 0.008,0 0.008,0 Z" style="fill:none;stroke:#000000;stroke-width:30;stroke-linecap:round;stroke-linejoin:round;stroke-miterlimit:10;stroke-dasharray:none;stroke-opacity:1" id="path2386" />
        </g>
        <g id="g2388" transform="translate(304.2002,63.2002)">
          <path d="M 0,0 32.133,-48.2" style="fill:none;stroke:#000000;stroke-width:30;stroke-linecap:round;stroke-linejoin:round;stroke-miterlimit:10;stroke-dasharray:none;stroke-opacity:1" id="path2390" />
        </g>
        <g id="g2392" transform="translate(191.7334,496.333)">
          <path d="M 0,0 V -31.467" style="fill:none;stroke:#000000;stroke-width:30;stroke-linecap:round;stroke-linejoin:round;stroke-miterlimit:10;stroke-dasharray:none;stroke-opacity:1" id="path2394" />
        </g>
        <g id="g2396" transform="translate(256,497)">
          <path d="M 0,0 V -32.134" style="fill:none;stroke:#000000;stroke-width:30;stroke-linecap:round;stroke-linejoin:round;stroke-miterlimit:10;stroke-dasharray:none;stroke-opacity:1" id="path2398" />
        </g>
        <g id="g2400" transform="translate(320.2666,491.8262)">
          <path d="M 0,0 V -26.96" style="fill:none;stroke:#000000;stroke-width:30;stroke-linecap:round;stroke-linejoin:round;stroke-miterlimit:10;stroke-dasharray:none;stroke-opacity:1" id="path2402" />
        </g>
      </g>
    </g>
  </g>
</svg>
