<svg id="Capa_1" enable-background="new 0 0 512 512" height="512" viewBox="0 0 512 512" width="512" xmlns="http://www.w3.org/2000/svg"><g><ellipse cx="331.065" cy="366.633" rx="10" ry="10" transform="matrix(.45 -.893 .893 .45 -145.259 497.551)"/><path d="m430.664 174.565-20.234-71.777c-13.455-47.727-49.45-85.944-96.286-102.232-2.159-.751-4.512-.741-6.665.029-15.249 5.455-34.616 8.755-51.805 8.83-21.598.127-39.744-4.75-51.148-8.83-2.155-.771-4.506-.781-6.665-.029-46.836 16.288-82.831 54.505-96.287 102.233l-20.234 71.775c-2.233 7.919-.396 16.527 4.828 22.877 3.74 4.547 8.806 7.319 14.481 8.649 4.024.943 8.049 1.886 12.073 2.83 4.335 1.016 8.542 1.967 13.048 1.36 7.643-1.03 15.516-5.992 18.777-13.18l26.072-57.644c1.911 9.48 2.971 19.127 3.163 28.864.23 11.586-.791 23.236-3.033 34.627-3.294 16.72-4.629 33.393-3.969 49.555 1.519 37.159 7.598 212.704 9.117 249.887.219 5.37 4.636 9.611 10.011 9.611h45.16c5.017 0 9.261-3.71 9.93-8.683l15.005-111.473 15.009 111.473c.669 4.973 4.913 8.683 9.93 8.683h45.16c5.375 0 9.792-4.241 10.011-9.611.704-17.195 2.833-80.647 3.182-90.574.194-5.53-4.132-10.17-9.662-10.365-5.511-.177-10.17 4.131-10.365 9.662-.348 9.937-2.218 65.631-2.798 80.848h-26.766l-23.768-176.526c-.669-4.973-4.921-8.683-9.937-8.683-5.018 0-9.261 3.71-9.93 8.683l-23.76 176.526h-26.775c-1.391-35.069-7.209-203.055-8.731-240.277-.596-14.591.618-29.685 3.609-44.865 2.52-12.795 3.665-25.882 3.407-38.896-.391-19.72-3.949-39.102-10.569-57.667l26.259-87.092c10.011 2.773 22.425 5.231 36.467 6.019v127.662c0 5.533 4.486 10.02 10.02 10.02s10.02-4.486 10.02-10.02v-127.74c14.717-.929 27.362-3.553 36.463-6.005l26.279 87.158c-6.621 18.565-10.178 37.947-10.569 57.667-.258 13.015.887 26.102 3.407 38.897 2.99 15.179 4.204 30.273 3.609 44.864-.753 18.427-1.613 41.209-2.626 69.65-.197 5.53 4.126 10.173 9.657 10.371 5.522.187 10.173-4.127 10.371-9.657 1.012-28.406 1.869-51.155 2.62-69.546.66-16.161-.675-32.835-3.969-49.554-2.243-11.392-3.263-23.042-3.033-34.628.193-9.738 1.252-19.384 3.163-28.864l26.072 57.644c2.861 6.306 9.448 10.996 16.03 12.65 4.884 1.227 9.587.626 14.391-.5 4.164-.976 8.328-1.952 12.491-2.928 5.062-1.186 9.693-3.085 13.503-6.756 6.639-6.4 9.293-16.124 6.789-25.002zm-304.103 13.676c-2.554 3.706-7.5 1.583-10.985.766-3.657-.857-7.346-1.631-10.982-2.574-2.861-.742-4.811-3.436-3.967-6.432l20.234-71.775c9.998-35.463 34.335-64.872 66.635-81.476l-24.206 80.283zm284.298-4.244c-1.102 1.87-2.961 2.321-4.891 2.773-2.384.559-4.768 1.118-7.152 1.676-2.271.532-4.543 1.065-6.814 1.597-2.448.574-4.953.528-6.559-1.803l-36.729-81.207-24.206-80.283c32.299 16.605 56.638 46.014 66.635 81.475l20.234 71.777c.517 1.835-.103 3.291-.518 3.995z"/></g></svg>